              <svg xmlns="http://www.w3.org/2000/svg" viewBox="0 0 100 120">
  <defs>
    <linearGradient id="gold-mdao" x1="0%" y1="0%" x2="100%" y2="100%">
      <stop offset="0%" stopColor="#bf953f" />
      <stop offset="50%" stopColor="#fcf6ba" />
      <stop offset="100%" stopColor="#aa771c" />
    </linearGradient>
  </defs>
  
  <circle cx="50" cy="45" r="38" fill="none" stroke="url(#gold-mdao)" strokeWidth="2.5" />
  
  <g fill="url(#gold-mdao)">
    <rect x="42" y="36" width="16" height="4" rx="1" />
    <rect x="42" y="43" width="16" height="4" rx="1" />
    <rect x="42" y="50" width="16" height="4" rx="1" />
    
    <path d="M38 30c-5-5-15 0-15 15s10 15 15 5c-2 5-5 5-5 10s5 10 10 5-2-10-2-10" opacity="0.9" />
    <path d="M62 30c5-5 15 0 15 15s-10 15-15 5c2 5 5 5 5 10s-5 10-10 5 2-10 2-10" opacity="0.9" />
  </g>

  <text x="50" y="105" textAnchor="middle" fontFamily="Serif, 'Times New Roman'" fontWeight="bold" fontSize="20" fill="url(#gold-mdao)" letterSpacing="1">MDAO</text>
</svg>